<mxfile host="app.diagrams.net" modified="2021-05-18T09:09:14.190Z" agent="5.0 (Windows NT 10.0; Win64; x64) AppleWebKit/537.36 (KHTML, like Gecko) Chrome/90.0.4430.212 Safari/537.36 Edg/90.0.818.62" etag="X6rc7w3H7kMjJKkCiDG5" version="14.6.13" type="github" pages="2">
  <diagram id="9qe1KoFlNiDRj9Q3gKfL" name="Page-1">
    <mxGraphModel dx="868" dy="516" grid="0" gridSize="10" guides="1" tooltips="1" connect="1" arrows="1" fold="1" page="1" pageScale="1" pageWidth="850" pageHeight="1100" math="0" shadow="0">
      <root>
        <mxCell id="0" />
        <mxCell id="1" parent="0" />
        <mxCell id="V_kkH72xgpmKXkQYjctT-2" value="&lt;font style=&quot;font-size: 14px&quot;&gt;Nguồn Pin&lt;/font&gt;" style="rounded=1;whiteSpace=wrap;html=1;fillColor=#0050ef;strokeColor=#001DBC;fontColor=#ffffff;" parent="1" vertex="1">
          <mxGeometry x="320" y="520" width="160" height="40" as="geometry" />
        </mxCell>
        <mxCell id="V_kkH72xgpmKXkQYjctT-3" value="&lt;font style=&quot;font-size: 14px&quot;&gt;Khối xử lý &lt;font style=&quot;font-size: 14px&quot;&gt;trung &lt;/font&gt;tâm&lt;/font&gt;" style="rounded=1;whiteSpace=wrap;html=1;fillColor=#0050ef;strokeColor=#001DBC;fontColor=#ffffff;" parent="1" vertex="1">
          <mxGeometry x="320" y="680" width="160" height="80" as="geometry" />
        </mxCell>
        <mxCell id="V_kkH72xgpmKXkQYjctT-4" value="Khối nhận dạng biển báo" style="rounded=1;whiteSpace=wrap;html=1;fillColor=#1ba1e2;strokeColor=#006EAF;fontColor=#ffffff;" parent="1" vertex="1">
          <mxGeometry x="520" y="580" width="160" height="60" as="geometry" />
        </mxCell>
        <mxCell id="V_kkH72xgpmKXkQYjctT-5" value="Khối nhận dạng khuôn mặt" style="rounded=1;whiteSpace=wrap;html=1;fillColor=#1ba1e2;strokeColor=#006EAF;fontColor=#ffffff;" parent="1" vertex="1">
          <mxGeometry x="120" y="580" width="160" height="60" as="geometry" />
        </mxCell>
        <mxCell id="V_kkH72xgpmKXkQYjctT-6" value="&lt;font style=&quot;font-size: 14px&quot;&gt;Khối định vị GPS&lt;/font&gt;" style="rounded=1;whiteSpace=wrap;html=1;fillColor=#1ba1e2;strokeColor=#006EAF;fontColor=#ffffff;" parent="1" vertex="1">
          <mxGeometry x="80" y="690" width="160" height="60" as="geometry" />
        </mxCell>
        <mxCell id="V_kkH72xgpmKXkQYjctT-7" value="&lt;font style=&quot;font-size: 14px&quot;&gt;Khối đo &lt;font style=&quot;font-size: 14px&quot;&gt;tốc &lt;/font&gt;độ&lt;/font&gt;" style="rounded=1;whiteSpace=wrap;html=1;fillColor=#1ba1e2;strokeColor=#006EAF;fontColor=#ffffff;" parent="1" vertex="1">
          <mxGeometry x="560" y="690" width="170" height="60" as="geometry" />
        </mxCell>
        <mxCell id="V_kkH72xgpmKXkQYjctT-8" value="" style="endArrow=classic;html=1;fillColor=#0050ef;strokeColor=#001DBC;strokeWidth=2;entryX=0.5;entryY=0;entryDx=0;entryDy=0;exitX=0.5;exitY=1;exitDx=0;exitDy=0;" parent="1" source="V_kkH72xgpmKXkQYjctT-2" target="V_kkH72xgpmKXkQYjctT-3" edge="1">
          <mxGeometry width="50" height="50" relative="1" as="geometry">
            <mxPoint x="375" y="640" as="sourcePoint" />
            <mxPoint x="425" y="590" as="targetPoint" />
          </mxGeometry>
        </mxCell>
        <mxCell id="V_kkH72xgpmKXkQYjctT-10" value="" style="edgeStyle=segmentEdgeStyle;endArrow=classic;html=1;strokeWidth=2;fillColor=#0050ef;strokeColor=#001DBC;entryX=0.25;entryY=0;entryDx=0;entryDy=0;exitX=1;exitY=0.5;exitDx=0;exitDy=0;" parent="1" source="V_kkH72xgpmKXkQYjctT-5" target="V_kkH72xgpmKXkQYjctT-3" edge="1">
          <mxGeometry width="50" height="50" relative="1" as="geometry">
            <mxPoint x="290" y="630" as="sourcePoint" />
            <mxPoint x="340" y="580" as="targetPoint" />
            <Array as="points">
              <mxPoint x="360" y="610" />
            </Array>
          </mxGeometry>
        </mxCell>
        <mxCell id="V_kkH72xgpmKXkQYjctT-11" value="" style="edgeStyle=segmentEdgeStyle;endArrow=classic;html=1;strokeWidth=2;fillColor=#0050ef;strokeColor=#001DBC;entryX=0.75;entryY=0;entryDx=0;entryDy=0;exitX=0;exitY=0.5;exitDx=0;exitDy=0;" parent="1" source="V_kkH72xgpmKXkQYjctT-4" target="V_kkH72xgpmKXkQYjctT-3" edge="1">
          <mxGeometry width="50" height="50" relative="1" as="geometry">
            <mxPoint x="420" y="609.5" as="sourcePoint" />
            <mxPoint x="420" y="609.5" as="targetPoint" />
            <Array as="points">
              <mxPoint x="440" y="610" />
            </Array>
          </mxGeometry>
        </mxCell>
        <mxCell id="V_kkH72xgpmKXkQYjctT-19" value="" style="endArrow=classic;html=1;strokeWidth=2;entryX=0;entryY=0.5;entryDx=0;entryDy=0;fillColor=#0050ef;strokeColor=#001DBC;" parent="1" target="V_kkH72xgpmKXkQYjctT-3" edge="1">
          <mxGeometry width="50" height="50" relative="1" as="geometry">
            <mxPoint x="240" y="720" as="sourcePoint" />
            <mxPoint x="280" y="790" as="targetPoint" />
          </mxGeometry>
        </mxCell>
        <mxCell id="V_kkH72xgpmKXkQYjctT-20" value="" style="endArrow=classic;html=1;strokeWidth=2;entryX=1;entryY=0.5;entryDx=0;entryDy=0;fillColor=#0050ef;strokeColor=#001DBC;" parent="1" target="V_kkH72xgpmKXkQYjctT-3" edge="1">
          <mxGeometry width="50" height="50" relative="1" as="geometry">
            <mxPoint x="561" y="720" as="sourcePoint" />
            <mxPoint x="400" y="690" as="targetPoint" />
          </mxGeometry>
        </mxCell>
        <mxCell id="V_kkH72xgpmKXkQYjctT-21" value="Khối hiển thị" style="rounded=1;whiteSpace=wrap;html=1;fillColor=#0050ef;strokeColor=#001DBC;fontColor=#ffffff;" parent="1" vertex="1">
          <mxGeometry x="200" y="800" width="120" height="60" as="geometry" />
        </mxCell>
        <mxCell id="V_kkH72xgpmKXkQYjctT-22" value="Khối cảnh báo" style="rounded=1;whiteSpace=wrap;html=1;fillColor=#0050ef;strokeColor=#001DBC;fontColor=#ffffff;" parent="1" vertex="1">
          <mxGeometry x="480" y="800" width="120" height="60" as="geometry" />
        </mxCell>
        <mxCell id="V_kkH72xgpmKXkQYjctT-23" value="" style="edgeStyle=segmentEdgeStyle;endArrow=classic;html=1;strokeWidth=2;exitX=0.25;exitY=1;exitDx=0;exitDy=0;fillColor=#0050ef;strokeColor=#001DBC;entryX=1;entryY=0.5;entryDx=0;entryDy=0;" parent="1" source="V_kkH72xgpmKXkQYjctT-3" target="V_kkH72xgpmKXkQYjctT-21" edge="1">
          <mxGeometry width="50" height="50" relative="1" as="geometry">
            <mxPoint x="340" y="820" as="sourcePoint" />
            <mxPoint x="320" y="850" as="targetPoint" />
            <Array as="points">
              <mxPoint x="360" y="830" />
            </Array>
          </mxGeometry>
        </mxCell>
        <mxCell id="V_kkH72xgpmKXkQYjctT-24" value="" style="edgeStyle=segmentEdgeStyle;endArrow=classic;html=1;strokeWidth=2;exitX=0.25;exitY=1;exitDx=0;exitDy=0;fillColor=#0050ef;strokeColor=#001DBC;entryX=0;entryY=0.5;entryDx=0;entryDy=0;" parent="1" target="V_kkH72xgpmKXkQYjctT-22" edge="1">
          <mxGeometry width="50" height="50" relative="1" as="geometry">
            <mxPoint x="440" y="760" as="sourcePoint" />
            <mxPoint x="400" y="850" as="targetPoint" />
            <Array as="points">
              <mxPoint x="440" y="830" />
            </Array>
          </mxGeometry>
        </mxCell>
        <mxCell id="V_kkH72xgpmKXkQYjctT-33" value="&lt;font style=&quot;font-size: 14px&quot; face=&quot;Times New Roman&quot;&gt;STM32F103C8T6&lt;/font&gt;" style="rounded=1;whiteSpace=wrap;html=1;fillColor=#0050ef;strokeColor=#001DBC;fontColor=#ffffff;" parent="1" vertex="1">
          <mxGeometry x="340" y="160" width="160" height="120" as="geometry" />
        </mxCell>
        <mxCell id="V_kkH72xgpmKXkQYjctT-92" value="&lt;b&gt;&lt;font face=&quot;Times New Roman&quot; color=&quot;#FFFFFF&quot;&gt;Raspberry_1&lt;/font&gt;&lt;/b&gt;" style="rounded=1;whiteSpace=wrap;html=1;fillColor=#1ba1e2;strokeColor=#006EAF;fontColor=#ffffff;" parent="1" vertex="1">
          <mxGeometry x="180" y="160" width="100" height="120" as="geometry" />
        </mxCell>
        <mxCell id="V_kkH72xgpmKXkQYjctT-93" value="&lt;b&gt;&lt;font face=&quot;Times New Roman&quot; color=&quot;#FFFFFF&quot;&gt;Raspberry_2&lt;/font&gt;&lt;/b&gt;" style="rounded=1;whiteSpace=wrap;html=1;fillColor=#1ba1e2;strokeColor=#006EAF;fontColor=#ffffff;" parent="1" vertex="1">
          <mxGeometry x="560" y="160" width="100" height="120" as="geometry" />
        </mxCell>
        <mxCell id="V_kkH72xgpmKXkQYjctT-94" value="" style="endArrow=classic;html=1;strokeColor=#000000;strokeWidth=2;" parent="1" edge="1">
          <mxGeometry relative="1" as="geometry">
            <mxPoint x="280" y="220" as="sourcePoint" />
            <mxPoint x="340" y="219.57999999999998" as="targetPoint" />
          </mxGeometry>
        </mxCell>
        <mxCell id="V_kkH72xgpmKXkQYjctT-95" value="&lt;div&gt;GPIO&lt;/div&gt;" style="edgeLabel;resizable=0;html=1;align=center;verticalAlign=middle;" parent="V_kkH72xgpmKXkQYjctT-94" connectable="0" vertex="1">
          <mxGeometry relative="1" as="geometry" />
        </mxCell>
        <mxCell id="V_kkH72xgpmKXkQYjctT-97" value="" style="endArrow=classic;html=1;strokeColor=#000000;strokeWidth=2;entryX=1;entryY=0.5;entryDx=0;entryDy=0;exitX=0;exitY=0.5;exitDx=0;exitDy=0;" parent="1" source="V_kkH72xgpmKXkQYjctT-93" target="V_kkH72xgpmKXkQYjctT-33" edge="1">
          <mxGeometry relative="1" as="geometry">
            <mxPoint x="360" y="140" as="sourcePoint" />
            <mxPoint x="460" y="140" as="targetPoint" />
          </mxGeometry>
        </mxCell>
        <mxCell id="V_kkH72xgpmKXkQYjctT-98" value="GPIO" style="edgeLabel;resizable=0;html=1;align=center;verticalAlign=middle;" parent="V_kkH72xgpmKXkQYjctT-97" connectable="0" vertex="1">
          <mxGeometry relative="1" as="geometry" />
        </mxCell>
        <mxCell id="V_kkH72xgpmKXkQYjctT-99" value="Module Sim" style="rounded=1;whiteSpace=wrap;html=1;fillColor=#1ba1e2;strokeColor=#006EAF;fontColor=#ffffff;" parent="1" vertex="1">
          <mxGeometry x="200" y="320" width="120" height="40" as="geometry" />
        </mxCell>
        <mxCell id="V_kkH72xgpmKXkQYjctT-100" value="Module GPS" style="rounded=1;whiteSpace=wrap;html=1;fillColor=#1ba1e2;strokeColor=#006EAF;fontColor=#ffffff;" parent="1" vertex="1">
          <mxGeometry x="520" y="320" width="120" height="40" as="geometry" />
        </mxCell>
        <mxCell id="V_kkH72xgpmKXkQYjctT-101" value="" style="endArrow=classic;html=1;strokeColor=#000000;strokeWidth=2;entryX=1;entryY=0.5;entryDx=0;entryDy=0;exitX=0.129;exitY=1.013;exitDx=0;exitDy=0;exitPerimeter=0;" parent="1" source="V_kkH72xgpmKXkQYjctT-33" target="V_kkH72xgpmKXkQYjctT-99" edge="1">
          <mxGeometry relative="1" as="geometry">
            <mxPoint x="360" y="290" as="sourcePoint" />
            <mxPoint x="460" y="290" as="targetPoint" />
            <Array as="points">
              <mxPoint x="361" y="340" />
            </Array>
          </mxGeometry>
        </mxCell>
        <mxCell id="V_kkH72xgpmKXkQYjctT-102" value="Uart" style="edgeLabel;resizable=0;html=1;align=center;verticalAlign=middle;" parent="V_kkH72xgpmKXkQYjctT-101" connectable="0" vertex="1">
          <mxGeometry relative="1" as="geometry" />
        </mxCell>
        <mxCell id="V_kkH72xgpmKXkQYjctT-106" value="" style="endArrow=classic;html=1;strokeColor=#000000;strokeWidth=2;entryX=0.856;entryY=1.008;entryDx=0;entryDy=0;entryPerimeter=0;exitX=0;exitY=0.5;exitDx=0;exitDy=0;" parent="1" source="V_kkH72xgpmKXkQYjctT-100" target="V_kkH72xgpmKXkQYjctT-33" edge="1">
          <mxGeometry relative="1" as="geometry">
            <mxPoint x="400" y="320" as="sourcePoint" />
            <mxPoint x="500" y="320" as="targetPoint" />
            <Array as="points">
              <mxPoint x="477" y="340" />
            </Array>
          </mxGeometry>
        </mxCell>
        <mxCell id="V_kkH72xgpmKXkQYjctT-107" value="Uart" style="edgeLabel;resizable=0;html=1;align=center;verticalAlign=middle;" parent="V_kkH72xgpmKXkQYjctT-106" connectable="0" vertex="1">
          <mxGeometry relative="1" as="geometry" />
        </mxCell>
        <mxCell id="V_kkH72xgpmKXkQYjctT-109" value="Cảm biến &lt;font face=&quot;Times New Roman&quot;&gt;Hall&lt;/font&gt;" style="rounded=1;whiteSpace=wrap;html=1;fillColor=#1ba1e2;strokeColor=#006EAF;fontColor=#ffffff;" parent="1" vertex="1">
          <mxGeometry x="360" y="360" width="120" height="60" as="geometry" />
        </mxCell>
        <mxCell id="V_kkH72xgpmKXkQYjctT-114" value="" style="endArrow=classic;html=1;strokeColor=#000000;strokeWidth=2;entryX=0.5;entryY=1;entryDx=0;entryDy=0;exitX=0.5;exitY=0;exitDx=0;exitDy=0;" parent="1" source="V_kkH72xgpmKXkQYjctT-109" target="V_kkH72xgpmKXkQYjctT-33" edge="1">
          <mxGeometry relative="1" as="geometry">
            <mxPoint x="350" y="310" as="sourcePoint" />
            <mxPoint x="450" y="310" as="targetPoint" />
          </mxGeometry>
        </mxCell>
        <mxCell id="V_kkH72xgpmKXkQYjctT-115" value="&lt;div&gt;GPIO&lt;/div&gt;" style="edgeLabel;resizable=0;html=1;align=center;verticalAlign=middle;" parent="V_kkH72xgpmKXkQYjctT-114" connectable="0" vertex="1">
          <mxGeometry relative="1" as="geometry" />
        </mxCell>
        <mxCell id="V_kkH72xgpmKXkQYjctT-116" value="LCD" style="rounded=1;whiteSpace=wrap;html=1;fillColor=#1ba1e2;strokeColor=#006EAF;fontColor=#ffffff;" parent="1" vertex="1">
          <mxGeometry x="460" y="80" width="120" height="40" as="geometry" />
        </mxCell>
        <mxCell id="V_kkH72xgpmKXkQYjctT-117" value="Khối led" style="rounded=1;whiteSpace=wrap;html=1;fillColor=#1ba1e2;strokeColor=#006EAF;fontColor=#ffffff;" parent="1" vertex="1">
          <mxGeometry x="260" y="80" width="120" height="40" as="geometry" />
        </mxCell>
        <mxCell id="V_kkH72xgpmKXkQYjctT-118" value="" style="endArrow=classic;html=1;strokeColor=#000000;strokeWidth=2;entryX=1;entryY=0.25;entryDx=0;entryDy=0;" parent="1" target="V_kkH72xgpmKXkQYjctT-33" edge="1">
          <mxGeometry relative="1" as="geometry">
            <mxPoint x="522" y="120" as="sourcePoint" />
            <mxPoint x="520" y="150" as="targetPoint" />
            <Array as="points">
              <mxPoint x="522" y="190" />
            </Array>
          </mxGeometry>
        </mxCell>
        <mxCell id="V_kkH72xgpmKXkQYjctT-119" value="I2C" style="edgeLabel;resizable=0;html=1;align=center;verticalAlign=middle;" parent="V_kkH72xgpmKXkQYjctT-118" connectable="0" vertex="1">
          <mxGeometry relative="1" as="geometry">
            <mxPoint x="-1.879999999999999" y="-15.850000000000001" as="offset" />
          </mxGeometry>
        </mxCell>
        <mxCell id="V_kkH72xgpmKXkQYjctT-120" value="" style="endArrow=classic;html=1;strokeColor=#000000;strokeWidth=2;exitX=0.5;exitY=1;exitDx=0;exitDy=0;entryX=0;entryY=0.25;entryDx=0;entryDy=0;entryPerimeter=0;" parent="1" source="V_kkH72xgpmKXkQYjctT-117" target="V_kkH72xgpmKXkQYjctT-33" edge="1">
          <mxGeometry relative="1" as="geometry">
            <mxPoint x="240" y="200" as="sourcePoint" />
            <mxPoint x="340" y="200" as="targetPoint" />
            <Array as="points">
              <mxPoint x="320" y="190" />
              <mxPoint x="330" y="190" />
            </Array>
          </mxGeometry>
        </mxCell>
        <mxCell id="V_kkH72xgpmKXkQYjctT-121" value="GPIO" style="edgeLabel;resizable=0;html=1;align=center;verticalAlign=middle;" parent="V_kkH72xgpmKXkQYjctT-120" connectable="0" vertex="1">
          <mxGeometry relative="1" as="geometry" />
        </mxCell>
      </root>
    </mxGraphModel>
  </diagram>
  <diagram id="DRSufnUlbqV0O_ohqXF0" name="Page-2">
    <mxGraphModel dx="1736" dy="964" grid="0" gridSize="10" guides="1" tooltips="1" connect="1" arrows="1" fold="1" page="1" pageScale="1" pageWidth="850" pageHeight="1100" math="0" shadow="0">
      <root>
        <mxCell id="-PCoeMqfJSXNTerW2Fz0-0" />
        <mxCell id="-PCoeMqfJSXNTerW2Fz0-1" parent="-PCoeMqfJSXNTerW2Fz0-0" />
        <mxCell id="-PCoeMqfJSXNTerW2Fz0-2" value="&lt;b style=&quot;font-size: 14px&quot;&gt;Start&lt;/b&gt;" style="ellipse;whiteSpace=wrap;html=1;fillColor=#0050ef;strokeColor=#001DBC;fontColor=#ffffff;" vertex="1" parent="-PCoeMqfJSXNTerW2Fz0-1">
          <mxGeometry x="92" y="22" width="160" height="60" as="geometry" />
        </mxCell>
        <mxCell id="-PCoeMqfJSXNTerW2Fz0-3" value="" style="endArrow=classic;html=1;exitX=0.5;exitY=1;exitDx=0;exitDy=0;strokeWidth=2;entryX=0.5;entryY=0;entryDx=0;entryDy=0;" edge="1" parent="-PCoeMqfJSXNTerW2Fz0-1" source="-PCoeMqfJSXNTerW2Fz0-2" target="-PCoeMqfJSXNTerW2Fz0-4">
          <mxGeometry width="50" height="50" relative="1" as="geometry">
            <mxPoint x="142" y="152" as="sourcePoint" />
            <mxPoint x="172" y="122" as="targetPoint" />
          </mxGeometry>
        </mxCell>
        <mxCell id="-PCoeMqfJSXNTerW2Fz0-4" value="&lt;b&gt;&lt;font style=&quot;font-size: 12px&quot;&gt;Load file model&lt;/font&gt;&lt;/b&gt;" style="rounded=0;whiteSpace=wrap;html=1;fillColor=#1ba1e2;strokeColor=#006EAF;fontColor=#ffffff;" vertex="1" parent="-PCoeMqfJSXNTerW2Fz0-1">
          <mxGeometry x="112" y="110" width="120" height="52" as="geometry" />
        </mxCell>
        <mxCell id="-PCoeMqfJSXNTerW2Fz0-5" value="" style="endArrow=classic;html=1;exitX=0.5;exitY=1;exitDx=0;exitDy=0;strokeWidth=2;" edge="1" parent="-PCoeMqfJSXNTerW2Fz0-1" source="-PCoeMqfJSXNTerW2Fz0-4" target="-PCoeMqfJSXNTerW2Fz0-6">
          <mxGeometry width="50" height="50" relative="1" as="geometry">
            <mxPoint x="12" y="152" as="sourcePoint" />
            <mxPoint x="172" y="202" as="targetPoint" />
          </mxGeometry>
        </mxCell>
        <mxCell id="-PCoeMqfJSXNTerW2Fz0-6" value="&lt;font size=&quot;1&quot;&gt;&lt;b style=&quot;font-size: 12px&quot;&gt;Thu ảnh đầu vào&lt;/b&gt;&lt;/font&gt;" style="rounded=0;whiteSpace=wrap;html=1;fillColor=#1ba1e2;strokeColor=#006EAF;fontColor=#ffffff;" vertex="1" parent="-PCoeMqfJSXNTerW2Fz0-1">
          <mxGeometry x="112" y="202" width="120" height="40" as="geometry" />
        </mxCell>
        <mxCell id="-PCoeMqfJSXNTerW2Fz0-7" value="" style="endArrow=classic;html=1;exitX=0.5;exitY=1;exitDx=0;exitDy=0;strokeWidth=2;" edge="1" parent="-PCoeMqfJSXNTerW2Fz0-1" source="-PCoeMqfJSXNTerW2Fz0-6">
          <mxGeometry width="50" height="50" relative="1" as="geometry">
            <mxPoint x="132" y="342" as="sourcePoint" />
            <mxPoint x="172" y="269" as="targetPoint" />
          </mxGeometry>
        </mxCell>
        <mxCell id="-PCoeMqfJSXNTerW2Fz0-8" value="&lt;font style=&quot;font-size: 12px&quot;&gt;&lt;b&gt;Tiền xử lý ảnh :&lt;br&gt;-Lọc nhiễu&lt;br&gt;-Chuyển ảnh từ RGB sang Gray&lt;br&gt;-Chỉnh sửa độ sáng&lt;br&gt;&lt;/b&gt;&lt;/font&gt;" style="rounded=0;whiteSpace=wrap;html=1;fillColor=#1ba1e2;strokeColor=#006EAF;fontColor=#ffffff;" vertex="1" parent="-PCoeMqfJSXNTerW2Fz0-1">
          <mxGeometry x="72" y="268" width="200" height="90" as="geometry" />
        </mxCell>
        <mxCell id="-PCoeMqfJSXNTerW2Fz0-9" value="" style="endArrow=classic;html=1;exitX=0.5;exitY=1;exitDx=0;exitDy=0;strokeWidth=2;" edge="1" parent="-PCoeMqfJSXNTerW2Fz0-1" source="-PCoeMqfJSXNTerW2Fz0-8">
          <mxGeometry width="50" height="50" relative="1" as="geometry">
            <mxPoint x="122" y="372" as="sourcePoint" />
            <mxPoint x="172" y="387" as="targetPoint" />
          </mxGeometry>
        </mxCell>
        <mxCell id="-PCoeMqfJSXNTerW2Fz0-10" value="&lt;b&gt;Phát hiện khuôn mặt bằng Haar Cascade&lt;/b&gt;" style="rounded=0;whiteSpace=wrap;html=1;fillColor=#1ba1e2;strokeColor=#006EAF;fontColor=#ffffff;" vertex="1" parent="-PCoeMqfJSXNTerW2Fz0-1">
          <mxGeometry x="102" y="387" width="140" height="72" as="geometry" />
        </mxCell>
        <mxCell id="-PCoeMqfJSXNTerW2Fz0-11" value="&lt;b&gt;Phát hiện được &lt;br&gt;khuôn mặt ?&lt;/b&gt;" style="rhombus;whiteSpace=wrap;html=1;fillColor=#1ba1e2;strokeColor=#006EAF;fontColor=#ffffff;" vertex="1" parent="-PCoeMqfJSXNTerW2Fz0-1">
          <mxGeometry x="107" y="485" width="130" height="80" as="geometry" />
        </mxCell>
        <mxCell id="-PCoeMqfJSXNTerW2Fz0-12" value="" style="endArrow=classic;html=1;exitX=0.5;exitY=1;exitDx=0;exitDy=0;entryX=0.5;entryY=0;entryDx=0;entryDy=0;strokeWidth=2;" edge="1" parent="-PCoeMqfJSXNTerW2Fz0-1" source="-PCoeMqfJSXNTerW2Fz0-10" target="-PCoeMqfJSXNTerW2Fz0-11">
          <mxGeometry width="50" height="50" relative="1" as="geometry">
            <mxPoint x="122" y="412" as="sourcePoint" />
            <mxPoint x="172" y="362" as="targetPoint" />
          </mxGeometry>
        </mxCell>
        <mxCell id="-PCoeMqfJSXNTerW2Fz0-14" value="" style="edgeStyle=elbowEdgeStyle;elbow=horizontal;endArrow=classic;html=1;exitX=1;exitY=0.5;exitDx=0;exitDy=0;strokeWidth=2;" edge="1" parent="-PCoeMqfJSXNTerW2Fz0-1" source="-PCoeMqfJSXNTerW2Fz0-11">
          <mxGeometry width="50" height="50" relative="1" as="geometry">
            <mxPoint x="402" y="482" as="sourcePoint" />
            <mxPoint x="172" y="182" as="targetPoint" />
            <Array as="points">
              <mxPoint x="312" y="222" />
              <mxPoint x="312" y="492" />
            </Array>
          </mxGeometry>
        </mxCell>
        <mxCell id="-PCoeMqfJSXNTerW2Fz0-17" value="No" style="edgeLabel;html=1;align=center;verticalAlign=middle;resizable=0;points=[];" vertex="1" connectable="0" parent="-PCoeMqfJSXNTerW2Fz0-14">
          <mxGeometry x="-0.8676" y="1" relative="1" as="geometry">
            <mxPoint as="offset" />
          </mxGeometry>
        </mxCell>
        <mxCell id="-PCoeMqfJSXNTerW2Fz0-19" value="&lt;b&gt;Nhận dạng khuôn mặt dựa trên file Model LBPH&lt;br&gt;&lt;/b&gt;" style="rounded=0;whiteSpace=wrap;html=1;fillColor=#1ba1e2;strokeColor=#006EAF;fontColor=#ffffff;strokeWidth=1;" vertex="1" parent="-PCoeMqfJSXNTerW2Fz0-1">
          <mxGeometry x="92" y="602" width="160" height="60" as="geometry" />
        </mxCell>
        <mxCell id="-PCoeMqfJSXNTerW2Fz0-21" value="" style="endArrow=classic;html=1;strokeWidth=2;exitX=0.5;exitY=1;exitDx=0;exitDy=0;" edge="1" parent="-PCoeMqfJSXNTerW2Fz0-1" source="-PCoeMqfJSXNTerW2Fz0-11">
          <mxGeometry width="50" height="50" relative="1" as="geometry">
            <mxPoint x="112" y="512" as="sourcePoint" />
            <mxPoint x="172" y="600" as="targetPoint" />
          </mxGeometry>
        </mxCell>
        <mxCell id="-PCoeMqfJSXNTerW2Fz0-23" value="Yes" style="edgeLabel;html=1;align=center;verticalAlign=middle;resizable=0;points=[];" vertex="1" connectable="0" parent="-PCoeMqfJSXNTerW2Fz0-21">
          <mxGeometry x="-0.3651" relative="1" as="geometry">
            <mxPoint as="offset" />
          </mxGeometry>
        </mxCell>
        <mxCell id="-PCoeMqfJSXNTerW2Fz0-24" value="" style="endArrow=classic;html=1;strokeWidth=2;exitX=0.5;exitY=1;exitDx=0;exitDy=0;" edge="1" parent="-PCoeMqfJSXNTerW2Fz0-1" source="-PCoeMqfJSXNTerW2Fz0-19">
          <mxGeometry width="50" height="50" relative="1" as="geometry">
            <mxPoint x="132" y="702" as="sourcePoint" />
            <mxPoint x="172" y="688" as="targetPoint" />
          </mxGeometry>
        </mxCell>
        <mxCell id="-PCoeMqfJSXNTerW2Fz0-25" value="&lt;b&gt;Gán nhãn và hiển thị&lt;/b&gt;" style="rounded=0;whiteSpace=wrap;html=1;strokeWidth=1;fillColor=#1ba1e2;strokeColor=#006EAF;fontColor=#ffffff;" vertex="1" parent="-PCoeMqfJSXNTerW2Fz0-1">
          <mxGeometry x="92" y="828" width="160" height="40" as="geometry" />
        </mxCell>
        <mxCell id="-PCoeMqfJSXNTerW2Fz0-27" value="&lt;b&gt;Gửi tín hiệu về bộ xử lý trung tâm&lt;/b&gt;" style="rounded=0;whiteSpace=wrap;html=1;strokeWidth=1;fillColor=#1ba1e2;strokeColor=#006EAF;fontColor=#ffffff;" vertex="1" parent="-PCoeMqfJSXNTerW2Fz0-1">
          <mxGeometry x="92" y="899" width="160" height="60" as="geometry" />
        </mxCell>
        <mxCell id="-PCoeMqfJSXNTerW2Fz0-28" value="" style="edgeStyle=elbowEdgeStyle;elbow=horizontal;endArrow=classic;html=1;strokeWidth=2;exitX=0;exitY=0.5;exitDx=0;exitDy=0;" edge="1" parent="-PCoeMqfJSXNTerW2Fz0-1" source="-PCoeMqfJSXNTerW2Fz0-27">
          <mxGeometry width="50" height="50" relative="1" as="geometry">
            <mxPoint x="2" y="842" as="sourcePoint" />
            <mxPoint x="172" y="182" as="targetPoint" />
            <Array as="points">
              <mxPoint x="52" y="822" />
            </Array>
          </mxGeometry>
        </mxCell>
        <mxCell id="3ktGh9wbNqbARYxelKdI-0" value="&lt;b&gt;Tập dữ liệu&lt;/b&gt;" style="shape=process;whiteSpace=wrap;html=1;backgroundOutline=1;strokeWidth=1;fillColor=#0050ef;strokeColor=#001DBC;fontColor=#ffffff;" vertex="1" parent="-PCoeMqfJSXNTerW2Fz0-1">
          <mxGeometry x="620" y="162" width="120" height="60" as="geometry" />
        </mxCell>
        <mxCell id="3ktGh9wbNqbARYxelKdI-2" value="&lt;b&gt;Tiền xử lý :&lt;br&gt;-Lọc ảnh&lt;br&gt;-Chuyển ảnh từ RGB sang Gray&lt;br&gt;-Resize ảnh&lt;br&gt;&lt;/b&gt;" style="rounded=0;whiteSpace=wrap;html=1;strokeWidth=1;fillColor=#1ba1e2;strokeColor=#006EAF;fontColor=#ffffff;" vertex="1" parent="-PCoeMqfJSXNTerW2Fz0-1">
          <mxGeometry x="585" y="250" width="190" height="70" as="geometry" />
        </mxCell>
        <mxCell id="3ktGh9wbNqbARYxelKdI-3" value="" style="endArrow=classic;html=1;strokeWidth=2;" edge="1" parent="-PCoeMqfJSXNTerW2Fz0-1" source="3ktGh9wbNqbARYxelKdI-0">
          <mxGeometry width="50" height="50" relative="1" as="geometry">
            <mxPoint x="630" y="302" as="sourcePoint" />
            <mxPoint x="680" y="250" as="targetPoint" />
            <Array as="points">
              <mxPoint x="680" y="250" />
            </Array>
          </mxGeometry>
        </mxCell>
        <mxCell id="3ktGh9wbNqbARYxelKdI-4" value="" style="endArrow=classic;html=1;strokeWidth=2;exitX=0.5;exitY=1;exitDx=0;exitDy=0;" edge="1" parent="-PCoeMqfJSXNTerW2Fz0-1" source="3ktGh9wbNqbARYxelKdI-2">
          <mxGeometry width="50" height="50" relative="1" as="geometry">
            <mxPoint x="630" y="332" as="sourcePoint" />
            <mxPoint x="680" y="360" as="targetPoint" />
          </mxGeometry>
        </mxCell>
        <mxCell id="3ktGh9wbNqbARYxelKdI-5" value="&lt;b&gt;Đưa dữ liệu vào môi trường LHPH để huấn luyện.&lt;br&gt;&lt;/b&gt;" style="rounded=0;whiteSpace=wrap;html=1;strokeWidth=1;fillColor=#1ba1e2;strokeColor=#006EAF;fontColor=#ffffff;" vertex="1" parent="-PCoeMqfJSXNTerW2Fz0-1">
          <mxGeometry x="580" y="360" width="200" height="60" as="geometry" />
        </mxCell>
        <mxCell id="3ktGh9wbNqbARYxelKdI-9" value="&lt;b&gt;Khởi tạo môi trường LBPH&lt;/b&gt;" style="ellipse;whiteSpace=wrap;html=1;strokeWidth=1;fillColor=#1ba1e2;strokeColor=#006EAF;fontColor=#ffffff;" vertex="1" parent="-PCoeMqfJSXNTerW2Fz0-1">
          <mxGeometry x="600" y="42" width="160" height="80" as="geometry" />
        </mxCell>
        <mxCell id="3ktGh9wbNqbARYxelKdI-10" value="" style="endArrow=classic;html=1;strokeWidth=2;entryX=0.5;entryY=0;entryDx=0;entryDy=0;exitX=0.5;exitY=1;exitDx=0;exitDy=0;" edge="1" parent="-PCoeMqfJSXNTerW2Fz0-1" source="3ktGh9wbNqbARYxelKdI-9" target="3ktGh9wbNqbARYxelKdI-0">
          <mxGeometry width="50" height="50" relative="1" as="geometry">
            <mxPoint x="630" y="180" as="sourcePoint" />
            <mxPoint x="680" y="130" as="targetPoint" />
          </mxGeometry>
        </mxCell>
        <mxCell id="3ktGh9wbNqbARYxelKdI-11" value="" style="endArrow=classic;html=1;strokeWidth=2;exitX=0.5;exitY=1;exitDx=0;exitDy=0;" edge="1" parent="-PCoeMqfJSXNTerW2Fz0-1" source="3ktGh9wbNqbARYxelKdI-5">
          <mxGeometry width="50" height="50" relative="1" as="geometry">
            <mxPoint x="670" y="530" as="sourcePoint" />
            <mxPoint x="680" y="450" as="targetPoint" />
          </mxGeometry>
        </mxCell>
        <mxCell id="3ktGh9wbNqbARYxelKdI-12" value="&lt;b&gt;Train&lt;/b&gt;" style="rounded=0;whiteSpace=wrap;html=1;strokeWidth=1;fillColor=#1ba1e2;strokeColor=#006EAF;fontColor=#ffffff;" vertex="1" parent="-PCoeMqfJSXNTerW2Fz0-1">
          <mxGeometry x="630" y="450" width="100" height="40" as="geometry" />
        </mxCell>
        <mxCell id="3ktGh9wbNqbARYxelKdI-13" value="" style="endArrow=classic;html=1;strokeWidth=2;exitX=0.5;exitY=1;exitDx=0;exitDy=0;" edge="1" parent="-PCoeMqfJSXNTerW2Fz0-1" source="3ktGh9wbNqbARYxelKdI-12">
          <mxGeometry width="50" height="50" relative="1" as="geometry">
            <mxPoint x="670" y="440" as="sourcePoint" />
            <mxPoint x="680" y="520" as="targetPoint" />
          </mxGeometry>
        </mxCell>
        <mxCell id="3ktGh9wbNqbARYxelKdI-14" value="&lt;b&gt;File Model&lt;/b&gt;" style="shape=process;whiteSpace=wrap;html=1;backgroundOutline=1;strokeWidth=1;fillColor=#0050ef;strokeColor=#001DBC;fontColor=#ffffff;" vertex="1" parent="-PCoeMqfJSXNTerW2Fz0-1">
          <mxGeometry x="620" y="520" width="120" height="50" as="geometry" />
        </mxCell>
        <mxCell id="3ktGh9wbNqbARYxelKdI-18" value="&lt;b&gt;Khuôn mặt có trong &lt;br&gt;tập huấn luyện ?&lt;/b&gt;" style="rhombus;whiteSpace=wrap;html=1;fillColor=#1ba1e2;strokeColor=#006EAF;fontColor=#ffffff;" vertex="1" parent="-PCoeMqfJSXNTerW2Fz0-1">
          <mxGeometry x="96" y="686" width="152" height="106" as="geometry" />
        </mxCell>
        <mxCell id="3ktGh9wbNqbARYxelKdI-19" value="" style="endArrow=classic;html=1;strokeWidth=2;exitX=0.5;exitY=1;exitDx=0;exitDy=0;entryX=0.5;entryY=0;entryDx=0;entryDy=0;" edge="1" parent="-PCoeMqfJSXNTerW2Fz0-1" source="3ktGh9wbNqbARYxelKdI-18" target="-PCoeMqfJSXNTerW2Fz0-25">
          <mxGeometry width="50" height="50" relative="1" as="geometry">
            <mxPoint x="15" y="750" as="sourcePoint" />
            <mxPoint x="65" y="700" as="targetPoint" />
          </mxGeometry>
        </mxCell>
        <mxCell id="3ktGh9wbNqbARYxelKdI-21" value="Yes" style="edgeLabel;html=1;align=center;verticalAlign=middle;resizable=0;points=[];" vertex="1" connectable="0" parent="3ktGh9wbNqbARYxelKdI-19">
          <mxGeometry x="-0.2593" y="1" relative="1" as="geometry">
            <mxPoint as="offset" />
          </mxGeometry>
        </mxCell>
        <mxCell id="3ktGh9wbNqbARYxelKdI-22" value="" style="endArrow=classic;html=1;strokeWidth=2;exitX=1;exitY=0.5;exitDx=0;exitDy=0;" edge="1" parent="-PCoeMqfJSXNTerW2Fz0-1" source="3ktGh9wbNqbARYxelKdI-18">
          <mxGeometry width="50" height="50" relative="1" as="geometry">
            <mxPoint x="83" y="669" as="sourcePoint" />
            <mxPoint x="297" y="739" as="targetPoint" />
          </mxGeometry>
        </mxCell>
        <mxCell id="3ktGh9wbNqbARYxelKdI-23" value="No" style="edgeLabel;html=1;align=center;verticalAlign=middle;resizable=0;points=[];" vertex="1" connectable="0" parent="3ktGh9wbNqbARYxelKdI-22">
          <mxGeometry x="-0.3364" relative="1" as="geometry">
            <mxPoint as="offset" />
          </mxGeometry>
        </mxCell>
        <mxCell id="3ktGh9wbNqbARYxelKdI-24" value="&lt;b&gt;Nhãn = &quot;Ke Trom&quot;&lt;br&gt;Hiển thị&lt;br&gt;&lt;/b&gt;" style="rounded=0;whiteSpace=wrap;html=1;strokeWidth=1;fillColor=#1ba1e2;strokeColor=#006EAF;fontColor=#ffffff;" vertex="1" parent="-PCoeMqfJSXNTerW2Fz0-1">
          <mxGeometry x="297" y="718" width="120" height="44" as="geometry" />
        </mxCell>
        <mxCell id="3ktGh9wbNqbARYxelKdI-29" value="" style="endArrow=classic;html=1;strokeWidth=2;exitX=0.5;exitY=1;exitDx=0;exitDy=0;entryX=0.5;entryY=0;entryDx=0;entryDy=0;" edge="1" parent="-PCoeMqfJSXNTerW2Fz0-1" source="-PCoeMqfJSXNTerW2Fz0-25" target="-PCoeMqfJSXNTerW2Fz0-27">
          <mxGeometry width="50" height="50" relative="1" as="geometry">
            <mxPoint x="220" y="910" as="sourcePoint" />
            <mxPoint x="270" y="860" as="targetPoint" />
          </mxGeometry>
        </mxCell>
        <mxCell id="3ktGh9wbNqbARYxelKdI-33" value="" style="edgeStyle=segmentEdgeStyle;endArrow=classic;html=1;strokeWidth=2;entryX=0.996;entryY=0.433;entryDx=0;entryDy=0;entryPerimeter=0;" edge="1" parent="-PCoeMqfJSXNTerW2Fz0-1" target="-PCoeMqfJSXNTerW2Fz0-27">
          <mxGeometry width="50" height="50" relative="1" as="geometry">
            <mxPoint x="417" y="740" as="sourcePoint" />
            <mxPoint x="467" y="690" as="targetPoint" />
            <Array as="points">
              <mxPoint x="440" y="740" />
              <mxPoint x="440" y="925" />
            </Array>
          </mxGeometry>
        </mxCell>
      </root>
    </mxGraphModel>
  </diagram>
</mxfile>
